<svg width="81" height="81" viewBox="0 0 81 81" fill="none" xmlns="http://www.w3.org/2000/svg">
<path d="M21.3957 74.7507C27.2842 77.931 33.9187 79.5869 40.6599 79.5869H40.6865C62.9082 79.5869 81 61.7403 81 39.8197C81 29.2011 76.8168 19.1871 69.1964 11.6699C61.576 4.15282 51.451 0 40.6599 0C18.4382 0 0.346385 17.8466 0.346385 39.7672C0.346385 46.7849 2.21152 53.6186 5.72862 59.6639L0 80.2703L21.3957 74.7507ZM40.6865 6.72861C49.6391 6.72861 58.0589 10.1718 64.3737 16.4273C70.6885 22.6828 74.1789 30.9884 74.1789 39.8197C74.1789 58.0606 59.1247 72.8846 40.6599 72.8846H40.6332C34.6115 72.8846 28.723 71.2813 23.5806 68.2849L22.3549 67.5753L9.67204 70.8607L13.0559 58.6651L12.2566 57.4035C8.89934 52.1468 7.14079 46.049 7.14079 39.8197C7.16744 21.5526 22.1951 6.72861 40.6865 6.72861ZM41.5125 56.2207C43.9105 57.2458 45.8023 57.8503 47.2678 58.3234C49.6924 59.0856 51.8773 58.9805 53.6092 58.7177C55.5543 58.4286 59.5776 56.3259 60.4036 53.9866C61.2562 51.6737 61.2562 49.6761 60.9898 49.2556C60.75 48.835 60.0572 48.5985 59.0714 48.0991C58.0589 47.5997 53.103 45.2079 52.197 44.8662C51.2645 44.5245 50.5983 44.3668 49.9322 45.3656C49.2661 46.3644 47.321 48.5985 46.7349 49.2556C46.1487 49.9127 45.5625 49.9915 44.55 49.4921C43.5375 48.9927 40.2868 47.9414 36.45 44.5508C33.4658 41.9224 31.4408 38.6633 30.8546 37.6645C30.2684 36.6657 30.8013 36.14 31.3076 35.6406C31.7605 35.1938 32.3201 34.4841 32.8263 33.9059C33.3326 33.3277 33.4924 32.9071 33.8388 32.25C34.1852 31.5929 33.9987 31.0147 33.7589 30.5153C33.5191 30.0159 31.4941 25.1272 30.6415 23.1296C29.8155 21.1846 28.9895 21.4475 28.3766 21.4212C27.7905 21.3949 27.1243 21.3949 26.4582 21.3949C25.7921 21.3949 24.6997 21.6314 23.7671 22.6302C22.8345 23.629 20.25 26.0208 20.25 30.9096C20.25 35.7983 23.847 40.5294 24.3533 41.1865C24.8063 41.8961 31.3875 51.9365 41.5125 56.2207Z" fill="#CD025A"/>
</svg>
